<svg width="129" height="25" viewBox="0 0 129 25" fill="none" xmlns="http://www.w3.org/2000/svg">
<rect width="30" height="7" rx="2" fill="#E58E36"/>
<rect x="8" y="9" width="22" height="7" rx="2" fill="#4B73F5"/>
<rect x="14" y="18" width="16" height="7" rx="2" fill="#2CBE3D"/>
<path d="M52.8 8.13176H48.576C48.352 5.95576 47.04 4.89976 44.352 4.89976C41.856 4.89976 40.544 5.79576 40.544 7.39576C40.544 8.73976 41.472 9.50776 43.84 10.0838C46.24 10.6598 48.576 11.2358 50.144 11.9398C52 12.7718 53.472 14.0838 53.472 17.0918C53.472 21.7638 49.952 23.8438 44.992 23.8438C39.744 23.8438 36.096 21.5078 36 16.7398H40.288C40.352 18.9158 42.176 20.2598 45.024 20.2598C47.648 20.2598 49.152 19.1398 49.152 17.2518C49.152 16.0038 48.512 15.1398 45.856 14.5638C43.232 13.9878 41.536 13.6038 40.032 12.9318C37.76 11.9078 36.48 10.3718 36.48 7.68376C36.48 3.87576 39.072 1.15576 44.256 1.15576C49.632 1.15576 52.64 4.06776 52.8 8.13176Z" fill="white"/>
<path d="M63.5993 16.8358V12.7398H67.4713V17.2198C67.4713 20.5478 65.5513 23.5238 61.1033 23.5238C56.4953 23.5238 54.6712 20.5798 54.6712 17.1878V3.10776H58.7673V7.36376H67.4713V10.3078H58.7673V16.7718C58.7673 18.7558 59.4712 19.9078 61.1672 19.9078C62.8312 19.9078 63.5993 18.7878 63.5993 16.8358Z" fill="white"/>
<path d="M78.7072 17.1238L78.7393 15.3958C78.3232 15.8118 77.5873 16.0358 76.0513 16.3238C73.6833 16.7718 72.9152 17.4438 72.9152 18.7878C72.9152 19.9718 73.6193 20.5478 74.9313 20.5478C77.0753 20.5478 78.6752 18.9798 78.7072 17.1238ZM82.8993 23.1078H79.0273C78.8993 22.7238 78.8033 22.1798 78.7713 21.6998C77.7793 22.7878 76.1153 23.5238 74.0033 23.5238C70.4193 23.5238 68.7552 21.7638 68.7552 19.2038C68.7552 14.6598 71.7953 14.1478 75.9873 13.5718C78.0673 13.2838 78.6432 12.8678 78.6432 11.7798C78.6432 10.7558 77.6193 10.1478 75.9873 10.1478C74.0993 10.1478 73.3313 11.0758 73.1393 12.4838H69.2673C69.3313 9.21976 71.1232 6.94776 76.1792 6.94776C81.1712 6.94776 82.8993 9.18776 82.8993 13.1558V23.1078Z" fill="white"/>
<path d="M94.7178 17.4118H98.9098C98.4618 21.0598 95.4857 23.5238 91.6777 23.5238C87.3897 23.5238 84.4458 20.6758 84.4458 15.0438C84.4458 9.41176 87.3898 6.94776 91.8058 6.94776C95.9018 6.94776 98.6857 9.28376 98.9417 12.9958H94.7498C94.5258 11.3638 93.3418 10.4038 91.7738 10.4038C90.0138 10.4038 88.5737 11.5238 88.5737 14.9478C88.5737 18.3718 90.0138 20.0358 91.6458 20.0358C93.2778 20.0358 94.5577 19.1078 94.7178 17.4118Z" fill="white"/>
<path d="M114.476 23.1078H109.804L106.348 16.0358L104.332 18.1158V23.1078H100.14V1.60376H104.332V13.3478L109.516 7.36376H114.604L109.324 13.1558L114.476 23.1078Z" fill="white"/>
<path d="M124.537 16.8358V12.7398H128.409V17.2198C128.409 20.5478 126.489 23.5238 122.041 23.5238C117.433 23.5238 115.609 20.5798 115.609 17.1878V3.10776H119.705V7.36376H128.409V10.3078H119.705V16.7718C119.705 18.7558 120.409 19.9078 122.105 19.9078C123.769 19.9078 124.537 18.7878 124.537 16.8358Z" fill="white"/>
</svg>
